<svg width="128" height="128" xmlns="http://www.w3.org/2000/svg" style="background-color:#fff">
  <g stroke="null" stroke-width="0">
   <polygon stroke="null" class="cls-1" points="28.15479278564453,72.71681785583496 41.42134094238281,72.71681785583496 24.731849670410156,39.97563171386719 5.639919757843018,77.43663215637207 0.2184906154870987,88.02437019348145 13.463781356811523,88.02437019348145 17.843446731567383,79.49891471862793 24.731849670410156,65.97722816467285 28.15479278564453,72.71681785583496 "/>
   <path stroke="null" class="cls-2" d="m53.0721,42.76076a13.26655,13.26655 0 0 0 -13.22403,13.28781l0,0.23387a13.05395,13.05395 0 0 0 2.31739,7.4837a12.37361,12.37361 0 0 0 1.67958,2.12605l0,0a13.11773,13.11773 0 0 0 9.2058,3.72059l14.73353,0a3.3379,3.3379 0 0 1 3.3379,3.3379a3.38042,3.38042 0 0 1 -3.3379,3.31664l-43.35017,0.12756l-5.82538,11.6295l49.64328,0l0.25513,0c6.18681,-1.46697 14.01067,-7.18605 14.41462,-14.88235a14.88235,14.88235 0 0 0 -3.40168,-9.67353l0,0l0,-0.1063l-0.1063,0l-0.53151,-0.65908a15.09496,15.09496 0 0 0 -11.1405,-4.91118l-14.66975,0a1.48824,1.48824 0 0 1 -1.46697,-1.44571l0,-0.23387a1.48824,1.48824 0 0 1 1.46697,-1.46697l68.77773,-0.1063l5.93168,-11.71454l-74.70941,-0.06378z" />
   <path stroke="null" class="cls-2" d="m85.51563,71.29235l0,16.73202l11.79958,0l0,-16.73202a1.48824,1.48824 0 0 1 1.46697,-1.44571l15.20126,0l6.03798,-11.82084l-21.2605,0a13.26655,13.26655 0 0 0 -13.24529,13.26655z" />
   <polygon stroke="null" points="28.15479278564453,72.71681785583496 41.42134094238281,72.71681785583496 24.731849670410156,39.97563171386719 5.639919757843018,77.43663215637207 0.2184906154870987,88.02437019348145 13.463781356811523,88.02437019348145 17.843446731567383,79.49891471862793 24.731849670410156,65.97722816467285 28.15479278564453,72.71681785583496 " />
   <path stroke="null" d="m85.51563,71.29235l0,16.73202l11.79958,0l0,-16.73202a1.48824,1.48824 0 0 1 1.46697,-1.44571l15.20126,0l6.03798,-11.82084l-21.2605,0a13.26655,13.26655 0 0 0 -13.24529,13.26655z" />
  </g>
</svg>